<svg xmlns="http://www.w3.org/2000/svg" width="24" height="24"><path d="M5 13.75A3.25 3.25 0 108.25 17 3.254 3.254 0 005 13.75zm0 6A2.75 2.75 0 117.75 17 2.753 2.753 0 015 19.75z"/><path d="M5 14.75A2.25 2.25 0 107.25 17 2.253 2.253 0 005 14.75zm0 4A1.75 1.75 0 116.75 17 1.752 1.752 0 015 18.75zm14-5A3.25 3.25 0 1022.25 17 3.254 3.254 0 0019 13.75zm0 6A2.75 2.75 0 1121.75 17 2.753 2.753 0 0119 19.75z"/><path d="M19 14.75A2.25 2.25 0 1021.25 17 2.253 2.253 0 0019 14.75zm0 4A1.75 1.75 0 1120.75 17 1.752 1.752 0 0119 18.75zM18.25 13v-1a.25.25 0 00-.25-.25h-3.056a3.773 3.773 0 01-1.677-.396l-1.155-.578a.256.256 0 00-.243.011.25.25 0 00-.119.213v2a.25.25 0 00.25.25h6a.25.25 0 00.25-.25zm-.5-.25h-5.5v-1.346l.793.398a4.281 4.281 0 001.901.448h2.806z"/><path d="M15 18.75h-3.764a1.741 1.741 0 01-1.565-.967L7.404 13.25H11a.25.25 0 00.25-.25v-2a.25.25 0 00-.25-.25H8.404l.543-1.086a.747.747 0 01.671-.414H10a.25.25 0 000-.5h-.382a1.243 1.243 0 00-1.118.691l-.724 1.448-.93 1.862L5 12.763h-.028a4.18 4.18 0 00-2.978 1.232.25.25 0 10.353.354 3.687 3.687 0 012.628-1.086H5l1.845-.012 2.378 4.755a2.238 2.238 0 002.012 1.244H15a.25.25 0 000-.5zm-6.846-7.5h2.596v1.5H7.404zm11.096 1.507v-.698l.974-1.948a.25.25 0 00-.112-.335.252.252 0 00-.336.113l-1 2a.25.25 0 00-.026.111v1a.25.25 0 00.25.25A3.754 3.754 0 0122.75 17a.25.25 0 00.5 0 4.256 4.256 0 00-4-4.243z"/><path d="M12 16.25h3a.25.25 0 00.224-.139l1-2A.25.25 0 0016 13.75h-5a.25.25 0 00-.224.361l1 2a.25.25 0 00.224.139zm3.596-2l-.75 1.5h-2.692l-.75-1.5zM10 13.75H9a.25.25 0 00-.224.361l1 2a.25.25 0 00.224.139h1a.25.25 0 00.224-.361l-1-2A.25.25 0 0010 13.75zm.154 2l-.75-1.5h.442l.75 1.5zm4.846 2h-4a.25.25 0 000 .5h4a.25.25 0 000-.5zm-9-8a.25.25 0 00-.25.25v1a.25.25 0 00.25.25h1a.25.25 0 00.25-.25v-1A.25.25 0 007 9.75zm.75 1h-.5v-.5h.5z"/></svg>